# xmcd CD database file
#
# Track frame offsets:
#	150
#	10051
#	21476
#	46180
#	60701
#	75772
#	98371
#	108068
#	130099
#	140764
#	151641
#	168263
#	179092
#	197455
#
# Disc length: 2884 seconds
#
# Revision: 0
# Processed by: cddbd v1.5.2PL0 Copyright (c) Steve Scherf et al.
# Submitted via: CDex 1.51
#
DISCID=9e0b420e
DTITLE=Tom Hook - Big Easy Classics
DYEAR=1900
DGENRE=Jazz
TTITLE0=The Fat Man
TTITLE1=Rockin' Pneumonia
TTITLE2=Cabbagehead
TTITLE3=Brother John
TTITLE4=Walkin' To New Orleans
TTITLE5=Guilty
TTITLE6=Let The Good Times Roll
TTITLE7=How Come My Dog Don't Bark?
TTITLE8=Loberta
TTITLE9=Jock-A-Mo
TTITLE10=Liza Jane
TTITLE11=Dat's Mardi Gras
TTITLE12=Sick and Tired
TTITLE13=I Wish I Was In New Orleans
EXTD=
EXTT0=
EXTT1=
EXTT2=
EXTT3=
EXTT4=
EXTT5=
EXTT6=
EXTT7=
EXTT8=
EXTT9=
EXTT10=
EXTT11=
EXTT12=
EXTT13=
PLAYORDER=
